M48
; DRILL file {KiCad 9.0.0} date 2025-03-28T15:22:39+0200
; FORMAT={-:-/ absolute / inch / decimal}
; #@! TF.CreationDate,2025-03-28T15:22:39+02:00
; #@! TF.GenerationSoftware,Kicad,Pcbnew,9.0.0
; #@! TF.FileFunction,Plated,1,2,PTH
FMAT,2
INCH
; #@! TA.AperFunction,Plated,PTH,ComponentDrill
T1C0.0098
; #@! TA.AperFunction,Plated,PTH,ViaDrill
T2C0.0118
; #@! TA.AperFunction,Plated,PTH,ComponentDrill
T3C0.0295
; #@! TA.AperFunction,Plated,PTH,ComponentDrill
T4C0.0354
; #@! TA.AperFunction,Plated,PTH,ComponentDrill
T5C0.0394
; #@! TA.AperFunction,Plated,PTH,ComponentDrill
T6C0.0433
%
G90
G05
T1
X6.2402Y-3.622
X6.2402Y-3.6614
T2
X4.9409Y-4.0157
X4.9606Y-2.5787
X5.1181Y-2.7165
X5.1181Y-2.7756
X5.1575Y-4.7441
X5.1575Y-4.8425
X5.374Y-2.6181
X5.4528Y-4.4685
X5.4528Y-4.6063
X5.4724Y-2.5984
X5.4801Y-3.4526
X5.4921Y-4.2913
X5.5315Y-4.1535
X5.5315Y-4.4882
X5.5315Y-4.5866
X5.5709Y-2.9331
X5.5906Y-3.3071
X5.6102Y-3.5039
X5.6102Y-4.4016
X5.6496Y-2.9331
X5.6496Y-3.3465
X5.6496Y-3.6614
X5.689Y-3.2087
X5.689Y-4.5079
X5.689Y-4.6063
X5.7283Y-4.1339
X5.748Y-3.8386
X5.7677Y-2.4606
X5.7677Y-3.2087
X5.8071Y-3.3858
X5.8071Y-4.1339
X5.8465Y-2.6378
X5.8465Y-2.7165
X5.8465Y-3.2087
X5.8661Y-4.9016
X5.8858Y-3.3858
X5.9902Y-4.5276
X6.0039Y-3.7008
X6.0413Y-4.4685
X6.063Y-3.9764
X6.063Y-4.2913
X6.063Y-4.3898
X6.122Y-3.5039
X6.122Y-3.9173
X6.1732Y-4.7441
X6.1811Y-3.2087
X6.1811Y-4.7047
X6.2205Y-3.0906
X6.2205Y-4.0551
X6.2402Y-4.3898
X6.2598Y-4.1535
X6.2598Y-4.252
X6.2795Y-3.2677
X6.2992Y-3.3732
X6.3189Y-3.7205
X6.3189Y-4.6457
X6.3583Y-2.6772
X6.3583Y-4.7835
X6.3583Y-4.8622
X6.3752Y-3.3043
X6.3976Y-2.9331
X6.3976Y-4.1388
X6.4173Y-4.5276
X6.4567Y-4.7835
X6.4764Y-4.6457
X6.4961Y-4.4094
X6.5157Y-4.5079
X6.5354Y-4.0551
X6.5354Y-4.311
X6.5551Y-4.8622
X6.561Y-4.5008
X6.5748Y-3.0709
X6.5945Y-2.6969
X6.5945Y-3.1496
X6.6732Y-2.6772
X6.6929Y-4.8425
X6.7126Y-3.6417
X6.7126Y-4.9803
X6.7323Y-2.8937
X6.8019Y-4.42
X6.8307Y-4.252
X6.8498Y-2.6938
X6.8701Y-2.9921
X6.8922Y-2.9136
X6.9291Y-3.3465
X6.9488Y-3.8583
X6.9488Y-3.9764
X6.9685Y-3.5433
X6.9882Y-2.8543
X6.9882Y-3.0118
X6.9882Y-4.252
X7.0669Y-2.9175
X7.0669Y-3.1496
X7.126Y-3.5433
X7.1457Y-3.7992
T3
X5.5118Y-2.6575
X5.5906Y-2.6575
T5
X5.2559Y-3.0378
X5.2559Y-3.1378
X5.2559Y-3.2378
X5.2559Y-3.3378
X5.2559Y-3.4378
X5.2559Y-3.5378
X5.2559Y-3.6378
X5.2559Y-3.7378
X5.2559Y-3.8378
X5.2559Y-3.9378
X5.2559Y-4.0378
X5.2559Y-4.1378
X5.2559Y-4.2378
X5.2559Y-4.3378
X5.2559Y-4.4378
X5.2559Y-4.5378
X5.3559Y-3.0378
X5.3559Y-3.1378
X5.3559Y-3.2378
X5.3559Y-3.3378
X5.3559Y-3.4378
X5.3559Y-3.5378
X5.3559Y-3.6378
X5.3559Y-3.7378
X5.3559Y-3.8378
X5.3559Y-3.9378
X5.3559Y-4.0378
X5.3559Y-4.1378
X5.3559Y-4.2378
X5.3559Y-4.3378
X5.3559Y-4.4378
X5.3559Y-4.5378
T4
G00X6.6929Y-2.6024
M15
G01X6.6929Y-2.5551
M16
G05
G00X6.6929Y-2.7736
M15
G01X6.6929Y-2.7421
M16
G05
G00X6.7134Y-2.7421
M15
G01X6.6898Y-2.7421
M16
G05
G00X7.0362Y-2.7421
M15
G01X7.0126Y-2.7421
M16
G05
G00X7.0331Y-2.6024
M15
G01X7.0331Y-2.5551
M16
G05
G00X7.0331Y-2.7736
M15
G01X7.0331Y-2.7421
M16
G05
T6
G00X5.2559Y-4.8976
M15
G01X5.2559Y-4.9449
M16
G05
G00X5.4449Y-4.8976
M15
G01X5.4449Y-4.9449
M16
G05
G00X5.6339Y-4.8976
M15
G01X5.6339Y-4.9449
M16
G05
M30
