%TF.GenerationSoftware,KiCad,Pcbnew,9.0.0*%
%TF.CreationDate,2025-03-28T15:22:39+02:00*%
%TF.ProjectId,project draft,70726f6a-6563-4742-9064-726166742e6b,rev?*%
%TF.SameCoordinates,Original*%
%TF.FileFunction,Soldermask,Bot*%
%TF.FilePolarity,Negative*%
%FSLAX46Y46*%
G04 Gerber Fmt 4.6, Leading zero omitted, Abs format (unit mm)*
G04 Created by KiCad (PCBNEW 9.0.0) date 2025-03-28 15:22:39*
%MOMM*%
%LPD*%
G01*
G04 APERTURE LIST*
G04 Aperture macros list*
%AMRoundRect*
0 Rectangle with rounded corners*
0 $1 Rounding radius*
0 $2 $3 $4 $5 $6 $7 $8 $9 X,Y pos of 4 corners*
0 Add a 4 corners polygon primitive as box body*
4,1,4,$2,$3,$4,$5,$6,$7,$8,$9,$2,$3,0*
0 Add four circle primitives for the rounded corners*
1,1,$1+$1,$2,$3*
1,1,$1+$1,$4,$5*
1,1,$1+$1,$6,$7*
1,1,$1+$1,$8,$9*
0 Add four rect primitives between the rounded corners*
20,1,$1+$1,$2,$3,$4,$5,0*
20,1,$1+$1,$4,$5,$6,$7,0*
20,1,$1+$1,$6,$7,$8,$9,0*
20,1,$1+$1,$8,$9,$2,$3,0*%
G04 Aperture macros list end*
%ADD10C,0.600000*%
%ADD11O,1.300000X2.100000*%
%ADD12O,1.700000X1.100000*%
%ADD13O,1.300000X2.500000*%
%ADD14O,1.200000X1.750000*%
%ADD15RoundRect,0.250000X0.350000X0.625000X-0.350000X0.625000X-0.350000X-0.625000X0.350000X-0.625000X0*%
%ADD16O,1.700000X1.700000*%
%ADD17R,1.700000X1.700000*%
%ADD18O,1.700000X2.900000*%
G04 APERTURE END LIST*
D10*
%TO.C,USBC2*%
X177720000Y-68699900D03*
X170920000Y-68699900D03*
D11*
X178640000Y-70049900D03*
X170000000Y-70049900D03*
D12*
X170219900Y-69649800D03*
X178420100Y-69649800D03*
D13*
X178640000Y-65500000D03*
X170000000Y-65500000D03*
%TD*%
D14*
%TO.C,J1*%
X140000000Y-67500000D03*
D15*
X142000000Y-67500000D03*
%TD*%
D16*
%TO.C,J2*%
X133500000Y-115260000D03*
X136040000Y-115260000D03*
X133500000Y-112720000D03*
X136040000Y-112720000D03*
X133500000Y-110180000D03*
X136040000Y-110180000D03*
X133500000Y-107640000D03*
X136040000Y-107640000D03*
X133500000Y-105100000D03*
X136040000Y-105100000D03*
X133500000Y-102560000D03*
X136040000Y-102560000D03*
X133500000Y-100020000D03*
X136040000Y-100020000D03*
X133500000Y-97480000D03*
X136040000Y-97480000D03*
X133500000Y-94940000D03*
X136040000Y-94940000D03*
X133500000Y-92400000D03*
X136040000Y-92400000D03*
X133500000Y-89860000D03*
X136040000Y-89860000D03*
X133500000Y-87320000D03*
X136040000Y-87320000D03*
X133500000Y-84780000D03*
X136040000Y-84780000D03*
X133500000Y-82240000D03*
X136040000Y-82240000D03*
X133500000Y-79700000D03*
X136040000Y-79700000D03*
X133500000Y-77160000D03*
D17*
X136040000Y-77160000D03*
%TD*%
D18*
%TO.C,U12*%
X133500000Y-125000000D03*
X138300100Y-125000000D03*
X143100000Y-125000000D03*
%TD*%
M02*
