%TF.GenerationSoftware,KiCad,Pcbnew,9.0.0*%
%TF.CreationDate,2025-03-28T15:22:39+02:00*%
%TF.ProjectId,project draft,70726f6a-6563-4742-9064-726166742e6b,rev?*%
%TF.SameCoordinates,Original*%
%TF.FileFunction,Soldermask,Top*%
%TF.FilePolarity,Negative*%
%FSLAX46Y46*%
G04 Gerber Fmt 4.6, Leading zero omitted, Abs format (unit mm)*
G04 Created by KiCad (PCBNEW 9.0.0) date 2025-03-28 15:22:39*
%MOMM*%
%LPD*%
G01*
G04 APERTURE LIST*
G04 Aperture macros list*
%AMRoundRect*
0 Rectangle with rounded corners*
0 $1 Rounding radius*
0 $2 $3 $4 $5 $6 $7 $8 $9 X,Y pos of 4 corners*
0 Add a 4 corners polygon primitive as box body*
4,1,4,$2,$3,$4,$5,$6,$7,$8,$9,$2,$3,0*
0 Add four circle primitives for the rounded corners*
1,1,$1+$1,$2,$3*
1,1,$1+$1,$4,$5*
1,1,$1+$1,$6,$7*
1,1,$1+$1,$8,$9*
0 Add four rect primitives between the rounded corners*
20,1,$1+$1,$2,$3,$4,$5,0*
20,1,$1+$1,$4,$5,$6,$7,0*
20,1,$1+$1,$6,$7,$8,$9,0*
20,1,$1+$1,$8,$9,$2,$3,0*%
G04 Aperture macros list end*
%ADD10RoundRect,0.101600X0.125000X0.475000X-0.125000X0.475000X-0.125000X-0.475000X0.125000X-0.475000X0*%
%ADD11RoundRect,0.101600X-0.125000X-0.475000X0.125000X-0.475000X0.125000X0.475000X-0.125000X0.475000X0*%
%ADD12O,1.503200X2.303200*%
%ADD13O,1.903200X1.303200*%
%ADD14O,1.503200X2.703200*%
%ADD15C,2.000000*%
%ADD16O,1.200000X1.750000*%
%ADD17RoundRect,0.250000X0.350000X0.625000X-0.350000X0.625000X-0.350000X-0.625000X0.350000X-0.625000X0*%
%ADD18O,1.700000X1.700000*%
%ADD19R,1.700000X1.700000*%
%ADD20RoundRect,0.237500X0.237500X-0.300000X0.237500X0.300000X-0.237500X0.300000X-0.237500X-0.300000X0*%
%ADD21RoundRect,0.237500X0.250000X0.237500X-0.250000X0.237500X-0.250000X-0.237500X0.250000X-0.237500X0*%
%ADD22RoundRect,0.237500X-0.250000X-0.237500X0.250000X-0.237500X0.250000X0.237500X-0.250000X0.237500X0*%
%ADD23RoundRect,0.150000X-0.150000X0.687500X-0.150000X-0.687500X0.150000X-0.687500X0.150000X0.687500X0*%
%ADD24R,3.300000X2.100000*%
%ADD25RoundRect,0.155000X-0.155000X0.212500X-0.155000X-0.212500X0.155000X-0.212500X0.155000X0.212500X0*%
%ADD26RoundRect,0.075000X-0.212500X-0.075000X0.212500X-0.075000X0.212500X0.075000X-0.212500X0.075000X0*%
%ADD27RoundRect,0.237500X-0.237500X0.300000X-0.237500X-0.300000X0.237500X-0.300000X0.237500X0.300000X0*%
%ADD28RoundRect,0.250000X0.350000X-0.275000X0.350000X0.275000X-0.350000X0.275000X-0.350000X-0.275000X0*%
%ADD29R,0.900000X1.600000*%
%ADD30RoundRect,0.062500X-0.187500X-0.062500X0.187500X-0.062500X0.187500X0.062500X-0.187500X0.062500X0*%
%ADD31RoundRect,0.155000X0.212500X0.155000X-0.212500X0.155000X-0.212500X-0.155000X0.212500X-0.155000X0*%
%ADD32RoundRect,0.100000X0.100000X-0.217500X0.100000X0.217500X-0.100000X0.217500X-0.100000X-0.217500X0*%
%ADD33RoundRect,0.160000X-0.197500X-0.160000X0.197500X-0.160000X0.197500X0.160000X-0.197500X0.160000X0*%
%ADD34RoundRect,0.160000X0.197500X0.160000X-0.197500X0.160000X-0.197500X-0.160000X0.197500X-0.160000X0*%
%ADD35RoundRect,0.237500X-0.237500X0.250000X-0.237500X-0.250000X0.237500X-0.250000X0.237500X0.250000X0*%
%ADD36RoundRect,0.050800X1.200000X1.150000X-1.200000X1.150000X-1.200000X-1.150000X1.200000X-1.150000X0*%
%ADD37RoundRect,0.050800X0.171500X0.780000X-0.171500X0.780000X-0.171500X-0.780000X0.171500X-0.780000X0*%
%ADD38RoundRect,0.250000X-0.400000X-0.625000X0.400000X-0.625000X0.400000X0.625000X-0.400000X0.625000X0*%
%ADD39RoundRect,0.050800X1.500000X1.750000X-1.500000X1.750000X-1.500000X-1.750000X1.500000X-1.750000X0*%
%ADD40O,1.701600X0.701600*%
%ADD41O,1.800000X3.000000*%
%ADD42RoundRect,0.150000X-0.150000X0.825000X-0.150000X-0.825000X0.150000X-0.825000X0.150000X0.825000X0*%
%ADD43RoundRect,0.150000X0.512500X0.150000X-0.512500X0.150000X-0.512500X-0.150000X0.512500X-0.150000X0*%
%ADD44RoundRect,0.050800X-0.300000X0.150000X-0.300000X-0.150000X0.300000X-0.150000X0.300000X0.150000X0*%
%ADD45RoundRect,0.250000X0.350000X0.450000X-0.350000X0.450000X-0.350000X-0.450000X0.350000X-0.450000X0*%
%ADD46RoundRect,0.160000X-0.160000X0.197500X-0.160000X-0.197500X0.160000X-0.197500X0.160000X0.197500X0*%
%ADD47RoundRect,0.150000X0.587500X0.150000X-0.587500X0.150000X-0.587500X-0.150000X0.587500X-0.150000X0*%
%ADD48RoundRect,0.237500X0.287500X0.237500X-0.287500X0.237500X-0.287500X-0.237500X0.287500X-0.237500X0*%
%ADD49RoundRect,0.155000X-0.212500X-0.155000X0.212500X-0.155000X0.212500X0.155000X-0.212500X0.155000X0*%
%ADD50RoundRect,0.155000X0.155000X-0.212500X0.155000X0.212500X-0.155000X0.212500X-0.155000X-0.212500X0*%
G04 APERTURE END LIST*
D10*
%TO.C,USBC2*%
X176949900Y-70619800D03*
X176450000Y-70619800D03*
X175949900Y-70619800D03*
X175450000Y-70619800D03*
X174949900Y-70619800D03*
X174450000Y-70619800D03*
X173949900Y-70619800D03*
X173450000Y-70619800D03*
X172949900Y-70619800D03*
X172450100Y-70619800D03*
X171949900Y-70619800D03*
X171450100Y-70619800D03*
D11*
X171700000Y-69369900D03*
X172199900Y-69369900D03*
X172700000Y-69369900D03*
X173200100Y-69369900D03*
X173700000Y-69369900D03*
X174199900Y-69369900D03*
X174700000Y-69369900D03*
X175199900Y-69369900D03*
X175700000Y-69369900D03*
X176199900Y-69369900D03*
X176700000Y-69369900D03*
X177199900Y-69369900D03*
D12*
X178640000Y-70049900D03*
X170000000Y-70049900D03*
D13*
X170219900Y-69649800D03*
X178420100Y-69649800D03*
D14*
X178640000Y-65500000D03*
X170000000Y-65500000D03*
%TD*%
D15*
%TO.C,TP7*%
X152500000Y-99500000D03*
%TD*%
D16*
%TO.C,J1*%
X140000000Y-67500000D03*
D17*
X142000000Y-67500000D03*
%TD*%
D18*
%TO.C,J2*%
X133500000Y-115260000D03*
X136040000Y-115260000D03*
X133500000Y-112720000D03*
X136040000Y-112720000D03*
X133500000Y-110180000D03*
X136040000Y-110180000D03*
X133500000Y-107640000D03*
X136040000Y-107640000D03*
X133500000Y-105100000D03*
X136040000Y-105100000D03*
X133500000Y-102560000D03*
X136040000Y-102560000D03*
X133500000Y-100020000D03*
X136040000Y-100020000D03*
X133500000Y-97480000D03*
X136040000Y-97480000D03*
X133500000Y-94940000D03*
X136040000Y-94940000D03*
X133500000Y-92400000D03*
X136040000Y-92400000D03*
X133500000Y-89860000D03*
X136040000Y-89860000D03*
X133500000Y-87320000D03*
X136040000Y-87320000D03*
X133500000Y-84780000D03*
X136040000Y-84780000D03*
X133500000Y-82240000D03*
X136040000Y-82240000D03*
X133500000Y-79700000D03*
X136040000Y-79700000D03*
X133500000Y-77160000D03*
D19*
X136040000Y-77160000D03*
%TD*%
D20*
%TO.C,C3*%
X179500000Y-77725000D03*
X179500000Y-76000000D03*
%TD*%
D21*
%TO.C,R3*%
X177750100Y-75000000D03*
X175925100Y-75000000D03*
%TD*%
D22*
%TO.C,R1*%
X173837600Y-86637500D03*
X175662600Y-86637500D03*
%TD*%
D15*
%TO.C,TP2*%
X178750100Y-84637500D03*
%TD*%
D23*
%TO.C,U1*%
X175750100Y-77500000D03*
X174750100Y-77500000D03*
X173750100Y-77500000D03*
X172750100Y-77500000D03*
X171750100Y-77500000D03*
X171750100Y-82775000D03*
X172750100Y-82775000D03*
X173750100Y-82775000D03*
X174750100Y-82775000D03*
X175750100Y-82775000D03*
D24*
X173750100Y-80137500D03*
%TD*%
D25*
%TO.C,C10*%
X172500000Y-97500000D03*
X172500000Y-96365000D03*
%TD*%
D26*
%TO.C,C1*%
X158700000Y-95000000D03*
X158025000Y-95000000D03*
%TD*%
D27*
%TO.C,C2*%
X162000000Y-94862500D03*
X162000000Y-93137500D03*
%TD*%
D28*
%TO.C,L1*%
X162000000Y-89000000D03*
X162000000Y-91300000D03*
%TD*%
D21*
%TO.C,R2*%
X158000000Y-89000000D03*
X159825000Y-89000000D03*
%TD*%
D29*
%TO.C,U2*%
X158500000Y-92500000D03*
D30*
X159450000Y-91750000D03*
X159450000Y-92250000D03*
X159450000Y-92750000D03*
X159450000Y-93250000D03*
X157550000Y-93250000D03*
X157550000Y-92750000D03*
X157550000Y-92250000D03*
X157550000Y-91750000D03*
%TD*%
D15*
%TO.C,TP5*%
X154500000Y-92500000D03*
%TD*%
D31*
%TO.C,C29*%
X167757600Y-126780000D03*
X168892600Y-126780000D03*
%TD*%
D32*
%TO.C,C28*%
X167325100Y-124305000D03*
X167325100Y-125120000D03*
%TD*%
D25*
%TO.C,C27*%
X169325100Y-125347500D03*
X169325100Y-124212500D03*
%TD*%
D33*
%TO.C,R28*%
X171097500Y-113000000D03*
X169902500Y-113000000D03*
%TD*%
D34*
%TO.C,R29*%
X165805000Y-113500000D03*
X167000000Y-113500000D03*
%TD*%
D35*
%TO.C,R30*%
X172912600Y-117692500D03*
X172912600Y-115867500D03*
%TD*%
D36*
%TO.C,U11*%
X168325100Y-118780000D03*
D37*
X170600200Y-121560000D03*
X169950200Y-121560000D03*
X169300200Y-121560000D03*
X168650200Y-121560000D03*
X168000000Y-121560000D03*
X167350000Y-121560000D03*
X166700000Y-121560000D03*
X166050000Y-121560000D03*
X166050000Y-116000000D03*
X166700000Y-116000000D03*
X167350000Y-116000000D03*
X168000000Y-116000000D03*
X168650200Y-116000000D03*
X169300200Y-116000000D03*
X169950200Y-116000000D03*
X170600200Y-116000000D03*
%TD*%
D38*
%TO.C,R17*%
X158325000Y-65000000D03*
X161425000Y-65000000D03*
%TD*%
D22*
%TO.C,R20*%
X165737500Y-67990000D03*
X163912500Y-67990000D03*
%TD*%
%TO.C,R21*%
X165737500Y-70500000D03*
X163912500Y-70500000D03*
%TD*%
D15*
%TO.C,TP4*%
X134500000Y-65500000D03*
%TD*%
%TO.C,TP3*%
X134500000Y-70000000D03*
%TD*%
D39*
%TO.C,U7*%
X153825000Y-71500000D03*
D40*
X156825000Y-73405000D03*
X156825000Y-72135000D03*
X156825000Y-70865000D03*
X156825000Y-69595000D03*
X150825000Y-73405000D03*
X150825000Y-72135000D03*
X150825000Y-70865000D03*
X150825000Y-69595000D03*
%TD*%
D41*
%TO.C,U12*%
X133500000Y-125000000D03*
X138300100Y-125000000D03*
X143100000Y-125000000D03*
%TD*%
D37*
%TO.C,U10*%
X156100200Y-116500000D03*
X155450200Y-116500000D03*
X154800200Y-116500000D03*
X154150200Y-116500000D03*
X153500000Y-116500000D03*
X152850000Y-116500000D03*
X152200000Y-116500000D03*
X151550000Y-116500000D03*
X151550000Y-122060000D03*
X152200000Y-122060000D03*
X152850000Y-122060000D03*
X153500000Y-122060000D03*
X154150200Y-122060000D03*
X154800200Y-122060000D03*
X155450200Y-122060000D03*
X156100200Y-122060000D03*
D36*
X153825100Y-119280000D03*
%TD*%
D42*
%TO.C,U6*%
X147270000Y-95025000D03*
X146000000Y-95025000D03*
X144730000Y-95025000D03*
X143460000Y-95025000D03*
X143460000Y-99975000D03*
X144730000Y-99975000D03*
X146000000Y-99975000D03*
X147270000Y-99975000D03*
%TD*%
D43*
%TO.C,U5*%
X174500000Y-94500000D03*
X174500000Y-93550000D03*
X174500000Y-92600000D03*
X172225000Y-92600000D03*
X172225000Y-94500000D03*
%TD*%
%TO.C,U4*%
X170137500Y-104950000D03*
X170137500Y-104000000D03*
X170137500Y-103050000D03*
X167862500Y-103050000D03*
X167862500Y-104950000D03*
%TD*%
D44*
%TO.C,U3*%
X157999800Y-104499900D03*
X156500000Y-104499900D03*
X156500000Y-105000000D03*
X156500000Y-104000000D03*
X157999800Y-105000000D03*
X157999800Y-104000000D03*
%TD*%
D15*
%TO.C,TP6*%
X152500000Y-104500000D03*
%TD*%
%TO.C,TP1*%
X161500000Y-128500000D03*
%TD*%
D35*
%TO.C,R27*%
X159000000Y-116280000D03*
X159000000Y-118105000D03*
%TD*%
D22*
%TO.C,R26*%
X155675000Y-113500000D03*
X157500000Y-113500000D03*
%TD*%
D21*
%TO.C,R25*%
X152500000Y-114000000D03*
X150675000Y-114000000D03*
%TD*%
D22*
%TO.C,R15*%
X154000000Y-65000000D03*
X155825000Y-65000000D03*
%TD*%
D21*
%TO.C,R14*%
X145777500Y-88500000D03*
X143952500Y-88500000D03*
%TD*%
%TO.C,R13*%
X145777500Y-91500000D03*
X143952500Y-91500000D03*
%TD*%
D22*
%TO.C,R12*%
X159587500Y-75520000D03*
X161412500Y-75520000D03*
%TD*%
%TO.C,R11*%
X159412500Y-71000000D03*
X161237500Y-71000000D03*
%TD*%
%TO.C,R10*%
X159587500Y-73000000D03*
X161412500Y-73000000D03*
%TD*%
D45*
%TO.C,R9*%
X147500000Y-103500000D03*
X145500000Y-103500000D03*
%TD*%
D22*
%TO.C,R8*%
X172587500Y-90500000D03*
X174412500Y-90500000D03*
%TD*%
%TO.C,R7*%
X168037500Y-100950000D03*
X169862500Y-100950000D03*
%TD*%
%TO.C,R6*%
X156500000Y-101500000D03*
X158325000Y-101500000D03*
%TD*%
D21*
%TO.C,R5*%
X160500000Y-99500000D03*
X158675000Y-99500000D03*
%TD*%
D46*
%TO.C,R4*%
X160500000Y-101805000D03*
X160500000Y-103000000D03*
%TD*%
D47*
%TO.C,Q2*%
X165787500Y-75450000D03*
X165787500Y-73550000D03*
X163912500Y-74500000D03*
%TD*%
D28*
%TO.C,L2*%
X160500000Y-107800000D03*
X160500000Y-105500000D03*
%TD*%
D48*
%TO.C,D2*%
X148200000Y-71000000D03*
X146450000Y-71000000D03*
%TD*%
%TO.C,D1*%
X148325000Y-73410000D03*
X146575000Y-73410000D03*
%TD*%
D31*
%TO.C,C26*%
X154325100Y-126780000D03*
X153190100Y-126780000D03*
%TD*%
D32*
%TO.C,C25*%
X152825100Y-125120000D03*
X152825100Y-124305000D03*
%TD*%
D25*
%TO.C,C24*%
X154825100Y-124212500D03*
X154825100Y-125347500D03*
%TD*%
D49*
%TO.C,C17*%
X151865000Y-67500000D03*
X153000000Y-67500000D03*
%TD*%
D31*
%TO.C,C16*%
X156325000Y-67500000D03*
X155190000Y-67500000D03*
%TD*%
D25*
%TO.C,C15*%
X147365000Y-91432500D03*
X147365000Y-92567500D03*
%TD*%
D27*
%TO.C,C14*%
X163500000Y-108000000D03*
X163500000Y-109725000D03*
%TD*%
D50*
%TO.C,C13*%
X178970000Y-94500000D03*
X178970000Y-93365000D03*
%TD*%
%TO.C,C12*%
X177000000Y-94500000D03*
X177000000Y-93365000D03*
%TD*%
D25*
%TO.C,C11*%
X174000000Y-96365000D03*
X174000000Y-97500000D03*
%TD*%
D50*
%TO.C,C9*%
X174037500Y-105017500D03*
X174037500Y-103882500D03*
%TD*%
D25*
%TO.C,C8*%
X168037500Y-106815000D03*
X168037500Y-107950000D03*
%TD*%
D50*
%TO.C,C7*%
X172537500Y-105017500D03*
X172537500Y-103882500D03*
%TD*%
D25*
%TO.C,C6*%
X169537500Y-106815000D03*
X169537500Y-107950000D03*
%TD*%
D27*
%TO.C,C5*%
X163500000Y-104500000D03*
X163500000Y-106225000D03*
%TD*%
D49*
%TO.C,C4*%
X156432500Y-107500000D03*
X157567500Y-107500000D03*
%TD*%
M02*
