%TF.GenerationSoftware,KiCad,Pcbnew,9.0.0*%
%TF.CreationDate,2025-03-28T15:22:39+02:00*%
%TF.ProjectId,project draft,70726f6a-6563-4742-9064-726166742e6b,rev?*%
%TF.SameCoordinates,Original*%
%TF.FileFunction,Legend,Bot*%
%TF.FilePolarity,Positive*%
%FSLAX46Y46*%
G04 Gerber Fmt 4.6, Leading zero omitted, Abs format (unit mm)*
G04 Created by KiCad (PCBNEW 9.0.0) date 2025-03-28 15:22:39*
%MOMM*%
%LPD*%
G01*
G04 APERTURE LIST*
G04 Aperture macros list*
%AMRoundRect*
0 Rectangle with rounded corners*
0 $1 Rounding radius*
0 $2 $3 $4 $5 $6 $7 $8 $9 X,Y pos of 4 corners*
0 Add a 4 corners polygon primitive as box body*
4,1,4,$2,$3,$4,$5,$6,$7,$8,$9,$2,$3,0*
0 Add four circle primitives for the rounded corners*
1,1,$1+$1,$2,$3*
1,1,$1+$1,$4,$5*
1,1,$1+$1,$6,$7*
1,1,$1+$1,$8,$9*
0 Add four rect primitives between the rounded corners*
20,1,$1+$1,$2,$3,$4,$5,0*
20,1,$1+$1,$4,$5,$6,$7,0*
20,1,$1+$1,$6,$7,$8,$9,0*
20,1,$1+$1,$8,$9,$2,$3,0*%
G04 Aperture macros list end*
%ADD10C,0.100000*%
%ADD11C,0.600000*%
%ADD12O,1.300000X2.100000*%
%ADD13O,1.700000X1.100000*%
%ADD14O,1.300000X2.500000*%
%ADD15O,1.200000X1.750000*%
%ADD16RoundRect,0.250000X0.350000X0.625000X-0.350000X0.625000X-0.350000X-0.625000X0.350000X-0.625000X0*%
%ADD17O,1.700000X1.700000*%
%ADD18R,1.700000X1.700000*%
%ADD19O,1.700000X2.900000*%
G04 APERTURE END LIST*
D10*
X179395088Y-129743734D02*
X179347468Y-129600877D01*
X179347468Y-129600877D02*
X179347468Y-129362782D01*
X179347468Y-129362782D02*
X179395088Y-129267544D01*
X179395088Y-129267544D02*
X179442707Y-129219925D01*
X179442707Y-129219925D02*
X179537945Y-129172306D01*
X179537945Y-129172306D02*
X179633183Y-129172306D01*
X179633183Y-129172306D02*
X179728421Y-129219925D01*
X179728421Y-129219925D02*
X179776040Y-129267544D01*
X179776040Y-129267544D02*
X179823659Y-129362782D01*
X179823659Y-129362782D02*
X179871278Y-129553258D01*
X179871278Y-129553258D02*
X179918897Y-129648496D01*
X179918897Y-129648496D02*
X179966516Y-129696115D01*
X179966516Y-129696115D02*
X180061754Y-129743734D01*
X180061754Y-129743734D02*
X180156992Y-129743734D01*
X180156992Y-129743734D02*
X180252230Y-129696115D01*
X180252230Y-129696115D02*
X180299849Y-129648496D01*
X180299849Y-129648496D02*
X180347468Y-129553258D01*
X180347468Y-129553258D02*
X180347468Y-129315163D01*
X180347468Y-129315163D02*
X180299849Y-129172306D01*
X180014135Y-128886591D02*
X180014135Y-128505639D01*
X180347468Y-128743734D02*
X179490326Y-128743734D01*
X179490326Y-128743734D02*
X179395088Y-128696115D01*
X179395088Y-128696115D02*
X179347468Y-128600877D01*
X179347468Y-128600877D02*
X179347468Y-128505639D01*
X180014135Y-127743734D02*
X179347468Y-127743734D01*
X180014135Y-128172305D02*
X179490326Y-128172305D01*
X179490326Y-128172305D02*
X179395088Y-128124686D01*
X179395088Y-128124686D02*
X179347468Y-128029448D01*
X179347468Y-128029448D02*
X179347468Y-127886591D01*
X179347468Y-127886591D02*
X179395088Y-127791353D01*
X179395088Y-127791353D02*
X179442707Y-127743734D01*
X179347468Y-126838972D02*
X180347468Y-126838972D01*
X179395088Y-126838972D02*
X179347468Y-126934210D01*
X179347468Y-126934210D02*
X179347468Y-127124686D01*
X179347468Y-127124686D02*
X179395088Y-127219924D01*
X179395088Y-127219924D02*
X179442707Y-127267543D01*
X179442707Y-127267543D02*
X179537945Y-127315162D01*
X179537945Y-127315162D02*
X179823659Y-127315162D01*
X179823659Y-127315162D02*
X179918897Y-127267543D01*
X179918897Y-127267543D02*
X179966516Y-127219924D01*
X179966516Y-127219924D02*
X180014135Y-127124686D01*
X180014135Y-127124686D02*
X180014135Y-126934210D01*
X180014135Y-126934210D02*
X179966516Y-126838972D01*
X179395088Y-125981829D02*
X179347468Y-126077067D01*
X179347468Y-126077067D02*
X179347468Y-126267543D01*
X179347468Y-126267543D02*
X179395088Y-126362781D01*
X179395088Y-126362781D02*
X179490326Y-126410400D01*
X179490326Y-126410400D02*
X179871278Y-126410400D01*
X179871278Y-126410400D02*
X179966516Y-126362781D01*
X179966516Y-126362781D02*
X180014135Y-126267543D01*
X180014135Y-126267543D02*
X180014135Y-126077067D01*
X180014135Y-126077067D02*
X179966516Y-125981829D01*
X179966516Y-125981829D02*
X179871278Y-125934210D01*
X179871278Y-125934210D02*
X179776040Y-125934210D01*
X179776040Y-125934210D02*
X179680802Y-126410400D01*
X180014135Y-125505638D02*
X179347468Y-125505638D01*
X179918897Y-125505638D02*
X179966516Y-125458019D01*
X179966516Y-125458019D02*
X180014135Y-125362781D01*
X180014135Y-125362781D02*
X180014135Y-125219924D01*
X180014135Y-125219924D02*
X179966516Y-125124686D01*
X179966516Y-125124686D02*
X179871278Y-125077067D01*
X179871278Y-125077067D02*
X179347468Y-125077067D01*
X180014135Y-124743733D02*
X180014135Y-124362781D01*
X180347468Y-124600876D02*
X179490326Y-124600876D01*
X179490326Y-124600876D02*
X179395088Y-124553257D01*
X179395088Y-124553257D02*
X179347468Y-124458019D01*
X179347468Y-124458019D02*
X179347468Y-124362781D01*
X179347468Y-123267542D02*
X180347468Y-123267542D01*
X180347468Y-123267542D02*
X179347468Y-122696114D01*
X179347468Y-122696114D02*
X180347468Y-122696114D01*
X180014135Y-121791352D02*
X179347468Y-121791352D01*
X180014135Y-122219923D02*
X179490326Y-122219923D01*
X179490326Y-122219923D02*
X179395088Y-122172304D01*
X179395088Y-122172304D02*
X179347468Y-122077066D01*
X179347468Y-122077066D02*
X179347468Y-121934209D01*
X179347468Y-121934209D02*
X179395088Y-121838971D01*
X179395088Y-121838971D02*
X179442707Y-121791352D01*
X179347468Y-121315161D02*
X180014135Y-121315161D01*
X179918897Y-121315161D02*
X179966516Y-121267542D01*
X179966516Y-121267542D02*
X180014135Y-121172304D01*
X180014135Y-121172304D02*
X180014135Y-121029447D01*
X180014135Y-121029447D02*
X179966516Y-120934209D01*
X179966516Y-120934209D02*
X179871278Y-120886590D01*
X179871278Y-120886590D02*
X179347468Y-120886590D01*
X179871278Y-120886590D02*
X179966516Y-120838971D01*
X179966516Y-120838971D02*
X180014135Y-120743733D01*
X180014135Y-120743733D02*
X180014135Y-120600876D01*
X180014135Y-120600876D02*
X179966516Y-120505637D01*
X179966516Y-120505637D02*
X179871278Y-120458018D01*
X179871278Y-120458018D02*
X179347468Y-120458018D01*
X179347468Y-119981828D02*
X180347468Y-119981828D01*
X179966516Y-119981828D02*
X180014135Y-119886590D01*
X180014135Y-119886590D02*
X180014135Y-119696114D01*
X180014135Y-119696114D02*
X179966516Y-119600876D01*
X179966516Y-119600876D02*
X179918897Y-119553257D01*
X179918897Y-119553257D02*
X179823659Y-119505638D01*
X179823659Y-119505638D02*
X179537945Y-119505638D01*
X179537945Y-119505638D02*
X179442707Y-119553257D01*
X179442707Y-119553257D02*
X179395088Y-119600876D01*
X179395088Y-119600876D02*
X179347468Y-119696114D01*
X179347468Y-119696114D02*
X179347468Y-119886590D01*
X179347468Y-119886590D02*
X179395088Y-119981828D01*
X179395088Y-118696114D02*
X179347468Y-118791352D01*
X179347468Y-118791352D02*
X179347468Y-118981828D01*
X179347468Y-118981828D02*
X179395088Y-119077066D01*
X179395088Y-119077066D02*
X179490326Y-119124685D01*
X179490326Y-119124685D02*
X179871278Y-119124685D01*
X179871278Y-119124685D02*
X179966516Y-119077066D01*
X179966516Y-119077066D02*
X180014135Y-118981828D01*
X180014135Y-118981828D02*
X180014135Y-118791352D01*
X180014135Y-118791352D02*
X179966516Y-118696114D01*
X179966516Y-118696114D02*
X179871278Y-118648495D01*
X179871278Y-118648495D02*
X179776040Y-118648495D01*
X179776040Y-118648495D02*
X179680802Y-119124685D01*
X179347468Y-118219923D02*
X180014135Y-118219923D01*
X179823659Y-118219923D02*
X179918897Y-118172304D01*
X179918897Y-118172304D02*
X179966516Y-118124685D01*
X179966516Y-118124685D02*
X180014135Y-118029447D01*
X180014135Y-118029447D02*
X180014135Y-117934209D01*
X179347468Y-116315161D02*
X179347468Y-116886589D01*
X179347468Y-116600875D02*
X180347468Y-116600875D01*
X180347468Y-116600875D02*
X180204611Y-116696113D01*
X180204611Y-116696113D02*
X180109373Y-116791351D01*
X180109373Y-116791351D02*
X180061754Y-116886589D01*
X179442707Y-115886589D02*
X179395088Y-115838970D01*
X179395088Y-115838970D02*
X179347468Y-115886589D01*
X179347468Y-115886589D02*
X179395088Y-115934208D01*
X179395088Y-115934208D02*
X179442707Y-115886589D01*
X179442707Y-115886589D02*
X179347468Y-115886589D01*
X179966516Y-115886589D02*
X179918897Y-115838970D01*
X179918897Y-115838970D02*
X179871278Y-115886589D01*
X179871278Y-115886589D02*
X179918897Y-115934208D01*
X179918897Y-115934208D02*
X179966516Y-115886589D01*
X179966516Y-115886589D02*
X179871278Y-115886589D01*
X179347468Y-114172304D02*
X179347468Y-114648494D01*
X179347468Y-114648494D02*
X180347468Y-114648494D01*
X179347468Y-113838970D02*
X180347468Y-113838970D01*
X179347468Y-113267542D02*
X179918897Y-113696113D01*
X180347468Y-113267542D02*
X179776040Y-113838970D01*
X179395088Y-112886589D02*
X179347468Y-112743732D01*
X179347468Y-112743732D02*
X179347468Y-112505637D01*
X179347468Y-112505637D02*
X179395088Y-112410399D01*
X179395088Y-112410399D02*
X179442707Y-112362780D01*
X179442707Y-112362780D02*
X179537945Y-112315161D01*
X179537945Y-112315161D02*
X179633183Y-112315161D01*
X179633183Y-112315161D02*
X179728421Y-112362780D01*
X179728421Y-112362780D02*
X179776040Y-112410399D01*
X179776040Y-112410399D02*
X179823659Y-112505637D01*
X179823659Y-112505637D02*
X179871278Y-112696113D01*
X179871278Y-112696113D02*
X179918897Y-112791351D01*
X179918897Y-112791351D02*
X179966516Y-112838970D01*
X179966516Y-112838970D02*
X180061754Y-112886589D01*
X180061754Y-112886589D02*
X180156992Y-112886589D01*
X180156992Y-112886589D02*
X180252230Y-112838970D01*
X180252230Y-112838970D02*
X180299849Y-112791351D01*
X180299849Y-112791351D02*
X180347468Y-112696113D01*
X180347468Y-112696113D02*
X180347468Y-112458018D01*
X180347468Y-112458018D02*
X180299849Y-112315161D01*
X179633183Y-111934208D02*
X179633183Y-111458018D01*
X179347468Y-112029446D02*
X180347468Y-111696113D01*
X180347468Y-111696113D02*
X179347468Y-111362780D01*
X179347468Y-111029446D02*
X180347468Y-111029446D01*
X180347468Y-111029446D02*
X179347468Y-110458018D01*
X179347468Y-110458018D02*
X180347468Y-110458018D01*
X179347468Y-109981827D02*
X180347468Y-109981827D01*
X180347468Y-109981827D02*
X179347468Y-109410399D01*
X179347468Y-109410399D02*
X180347468Y-109410399D01*
X180347468Y-108743732D02*
X180347468Y-108648494D01*
X180347468Y-108648494D02*
X180299849Y-108553256D01*
X180299849Y-108553256D02*
X180252230Y-108505637D01*
X180252230Y-108505637D02*
X180156992Y-108458018D01*
X180156992Y-108458018D02*
X179966516Y-108410399D01*
X179966516Y-108410399D02*
X179728421Y-108410399D01*
X179728421Y-108410399D02*
X179537945Y-108458018D01*
X179537945Y-108458018D02*
X179442707Y-108505637D01*
X179442707Y-108505637D02*
X179395088Y-108553256D01*
X179395088Y-108553256D02*
X179347468Y-108648494D01*
X179347468Y-108648494D02*
X179347468Y-108743732D01*
X179347468Y-108743732D02*
X179395088Y-108838970D01*
X179395088Y-108838970D02*
X179442707Y-108886589D01*
X179442707Y-108886589D02*
X179537945Y-108934208D01*
X179537945Y-108934208D02*
X179728421Y-108981827D01*
X179728421Y-108981827D02*
X179966516Y-108981827D01*
X179966516Y-108981827D02*
X180156992Y-108934208D01*
X180156992Y-108934208D02*
X180252230Y-108886589D01*
X180252230Y-108886589D02*
X180299849Y-108838970D01*
X180299849Y-108838970D02*
X180347468Y-108743732D01*
X180347468Y-107791351D02*
X180347468Y-107696113D01*
X180347468Y-107696113D02*
X180299849Y-107600875D01*
X180299849Y-107600875D02*
X180252230Y-107553256D01*
X180252230Y-107553256D02*
X180156992Y-107505637D01*
X180156992Y-107505637D02*
X179966516Y-107458018D01*
X179966516Y-107458018D02*
X179728421Y-107458018D01*
X179728421Y-107458018D02*
X179537945Y-107505637D01*
X179537945Y-107505637D02*
X179442707Y-107553256D01*
X179442707Y-107553256D02*
X179395088Y-107600875D01*
X179395088Y-107600875D02*
X179347468Y-107696113D01*
X179347468Y-107696113D02*
X179347468Y-107791351D01*
X179347468Y-107791351D02*
X179395088Y-107886589D01*
X179395088Y-107886589D02*
X179442707Y-107934208D01*
X179442707Y-107934208D02*
X179537945Y-107981827D01*
X179537945Y-107981827D02*
X179728421Y-108029446D01*
X179728421Y-108029446D02*
X179966516Y-108029446D01*
X179966516Y-108029446D02*
X180156992Y-107981827D01*
X180156992Y-107981827D02*
X180252230Y-107934208D01*
X180252230Y-107934208D02*
X180299849Y-107886589D01*
X180299849Y-107886589D02*
X180347468Y-107791351D01*
X179347468Y-106505637D02*
X179347468Y-107077065D01*
X179347468Y-106791351D02*
X180347468Y-106791351D01*
X180347468Y-106791351D02*
X180204611Y-106886589D01*
X180204611Y-106886589D02*
X180109373Y-106981827D01*
X180109373Y-106981827D02*
X180061754Y-107077065D01*
X177785144Y-129743734D02*
X177737524Y-129600877D01*
X177737524Y-129600877D02*
X177737524Y-129362782D01*
X177737524Y-129362782D02*
X177785144Y-129267544D01*
X177785144Y-129267544D02*
X177832763Y-129219925D01*
X177832763Y-129219925D02*
X177928001Y-129172306D01*
X177928001Y-129172306D02*
X178023239Y-129172306D01*
X178023239Y-129172306D02*
X178118477Y-129219925D01*
X178118477Y-129219925D02*
X178166096Y-129267544D01*
X178166096Y-129267544D02*
X178213715Y-129362782D01*
X178213715Y-129362782D02*
X178261334Y-129553258D01*
X178261334Y-129553258D02*
X178308953Y-129648496D01*
X178308953Y-129648496D02*
X178356572Y-129696115D01*
X178356572Y-129696115D02*
X178451810Y-129743734D01*
X178451810Y-129743734D02*
X178547048Y-129743734D01*
X178547048Y-129743734D02*
X178642286Y-129696115D01*
X178642286Y-129696115D02*
X178689905Y-129648496D01*
X178689905Y-129648496D02*
X178737524Y-129553258D01*
X178737524Y-129553258D02*
X178737524Y-129315163D01*
X178737524Y-129315163D02*
X178689905Y-129172306D01*
X178404191Y-128886591D02*
X178404191Y-128505639D01*
X178737524Y-128743734D02*
X177880382Y-128743734D01*
X177880382Y-128743734D02*
X177785144Y-128696115D01*
X177785144Y-128696115D02*
X177737524Y-128600877D01*
X177737524Y-128600877D02*
X177737524Y-128505639D01*
X178404191Y-127743734D02*
X177737524Y-127743734D01*
X178404191Y-128172305D02*
X177880382Y-128172305D01*
X177880382Y-128172305D02*
X177785144Y-128124686D01*
X177785144Y-128124686D02*
X177737524Y-128029448D01*
X177737524Y-128029448D02*
X177737524Y-127886591D01*
X177737524Y-127886591D02*
X177785144Y-127791353D01*
X177785144Y-127791353D02*
X177832763Y-127743734D01*
X177737524Y-126838972D02*
X178737524Y-126838972D01*
X177785144Y-126838972D02*
X177737524Y-126934210D01*
X177737524Y-126934210D02*
X177737524Y-127124686D01*
X177737524Y-127124686D02*
X177785144Y-127219924D01*
X177785144Y-127219924D02*
X177832763Y-127267543D01*
X177832763Y-127267543D02*
X177928001Y-127315162D01*
X177928001Y-127315162D02*
X178213715Y-127315162D01*
X178213715Y-127315162D02*
X178308953Y-127267543D01*
X178308953Y-127267543D02*
X178356572Y-127219924D01*
X178356572Y-127219924D02*
X178404191Y-127124686D01*
X178404191Y-127124686D02*
X178404191Y-126934210D01*
X178404191Y-126934210D02*
X178356572Y-126838972D01*
X177785144Y-125981829D02*
X177737524Y-126077067D01*
X177737524Y-126077067D02*
X177737524Y-126267543D01*
X177737524Y-126267543D02*
X177785144Y-126362781D01*
X177785144Y-126362781D02*
X177880382Y-126410400D01*
X177880382Y-126410400D02*
X178261334Y-126410400D01*
X178261334Y-126410400D02*
X178356572Y-126362781D01*
X178356572Y-126362781D02*
X178404191Y-126267543D01*
X178404191Y-126267543D02*
X178404191Y-126077067D01*
X178404191Y-126077067D02*
X178356572Y-125981829D01*
X178356572Y-125981829D02*
X178261334Y-125934210D01*
X178261334Y-125934210D02*
X178166096Y-125934210D01*
X178166096Y-125934210D02*
X178070858Y-126410400D01*
X178404191Y-125505638D02*
X177737524Y-125505638D01*
X178308953Y-125505638D02*
X178356572Y-125458019D01*
X178356572Y-125458019D02*
X178404191Y-125362781D01*
X178404191Y-125362781D02*
X178404191Y-125219924D01*
X178404191Y-125219924D02*
X178356572Y-125124686D01*
X178356572Y-125124686D02*
X178261334Y-125077067D01*
X178261334Y-125077067D02*
X177737524Y-125077067D01*
X178404191Y-124743733D02*
X178404191Y-124362781D01*
X178737524Y-124600876D02*
X177880382Y-124600876D01*
X177880382Y-124600876D02*
X177785144Y-124553257D01*
X177785144Y-124553257D02*
X177737524Y-124458019D01*
X177737524Y-124458019D02*
X177737524Y-124362781D01*
X177737524Y-123267542D02*
X178737524Y-123267542D01*
X178737524Y-123267542D02*
X177737524Y-122696114D01*
X177737524Y-122696114D02*
X178737524Y-122696114D01*
X178404191Y-121791352D02*
X177737524Y-121791352D01*
X178404191Y-122219923D02*
X177880382Y-122219923D01*
X177880382Y-122219923D02*
X177785144Y-122172304D01*
X177785144Y-122172304D02*
X177737524Y-122077066D01*
X177737524Y-122077066D02*
X177737524Y-121934209D01*
X177737524Y-121934209D02*
X177785144Y-121838971D01*
X177785144Y-121838971D02*
X177832763Y-121791352D01*
X177737524Y-121315161D02*
X178404191Y-121315161D01*
X178308953Y-121315161D02*
X178356572Y-121267542D01*
X178356572Y-121267542D02*
X178404191Y-121172304D01*
X178404191Y-121172304D02*
X178404191Y-121029447D01*
X178404191Y-121029447D02*
X178356572Y-120934209D01*
X178356572Y-120934209D02*
X178261334Y-120886590D01*
X178261334Y-120886590D02*
X177737524Y-120886590D01*
X178261334Y-120886590D02*
X178356572Y-120838971D01*
X178356572Y-120838971D02*
X178404191Y-120743733D01*
X178404191Y-120743733D02*
X178404191Y-120600876D01*
X178404191Y-120600876D02*
X178356572Y-120505637D01*
X178356572Y-120505637D02*
X178261334Y-120458018D01*
X178261334Y-120458018D02*
X177737524Y-120458018D01*
X177737524Y-119981828D02*
X178737524Y-119981828D01*
X178356572Y-119981828D02*
X178404191Y-119886590D01*
X178404191Y-119886590D02*
X178404191Y-119696114D01*
X178404191Y-119696114D02*
X178356572Y-119600876D01*
X178356572Y-119600876D02*
X178308953Y-119553257D01*
X178308953Y-119553257D02*
X178213715Y-119505638D01*
X178213715Y-119505638D02*
X177928001Y-119505638D01*
X177928001Y-119505638D02*
X177832763Y-119553257D01*
X177832763Y-119553257D02*
X177785144Y-119600876D01*
X177785144Y-119600876D02*
X177737524Y-119696114D01*
X177737524Y-119696114D02*
X177737524Y-119886590D01*
X177737524Y-119886590D02*
X177785144Y-119981828D01*
X177785144Y-118696114D02*
X177737524Y-118791352D01*
X177737524Y-118791352D02*
X177737524Y-118981828D01*
X177737524Y-118981828D02*
X177785144Y-119077066D01*
X177785144Y-119077066D02*
X177880382Y-119124685D01*
X177880382Y-119124685D02*
X178261334Y-119124685D01*
X178261334Y-119124685D02*
X178356572Y-119077066D01*
X178356572Y-119077066D02*
X178404191Y-118981828D01*
X178404191Y-118981828D02*
X178404191Y-118791352D01*
X178404191Y-118791352D02*
X178356572Y-118696114D01*
X178356572Y-118696114D02*
X178261334Y-118648495D01*
X178261334Y-118648495D02*
X178166096Y-118648495D01*
X178166096Y-118648495D02*
X178070858Y-119124685D01*
X177737524Y-118219923D02*
X178404191Y-118219923D01*
X178213715Y-118219923D02*
X178308953Y-118172304D01*
X178308953Y-118172304D02*
X178356572Y-118124685D01*
X178356572Y-118124685D02*
X178404191Y-118029447D01*
X178404191Y-118029447D02*
X178404191Y-117934209D01*
X178642286Y-116886589D02*
X178689905Y-116838970D01*
X178689905Y-116838970D02*
X178737524Y-116743732D01*
X178737524Y-116743732D02*
X178737524Y-116505637D01*
X178737524Y-116505637D02*
X178689905Y-116410399D01*
X178689905Y-116410399D02*
X178642286Y-116362780D01*
X178642286Y-116362780D02*
X178547048Y-116315161D01*
X178547048Y-116315161D02*
X178451810Y-116315161D01*
X178451810Y-116315161D02*
X178308953Y-116362780D01*
X178308953Y-116362780D02*
X177737524Y-116934208D01*
X177737524Y-116934208D02*
X177737524Y-116315161D01*
X177832763Y-115886589D02*
X177785144Y-115838970D01*
X177785144Y-115838970D02*
X177737524Y-115886589D01*
X177737524Y-115886589D02*
X177785144Y-115934208D01*
X177785144Y-115934208D02*
X177832763Y-115886589D01*
X177832763Y-115886589D02*
X177737524Y-115886589D01*
X178356572Y-115886589D02*
X178308953Y-115838970D01*
X178308953Y-115838970D02*
X178261334Y-115886589D01*
X178261334Y-115886589D02*
X178308953Y-115934208D01*
X178308953Y-115934208D02*
X178356572Y-115886589D01*
X178356572Y-115886589D02*
X178261334Y-115886589D01*
X177785144Y-114696113D02*
X177737524Y-114553256D01*
X177737524Y-114553256D02*
X177737524Y-114315161D01*
X177737524Y-114315161D02*
X177785144Y-114219923D01*
X177785144Y-114219923D02*
X177832763Y-114172304D01*
X177832763Y-114172304D02*
X177928001Y-114124685D01*
X177928001Y-114124685D02*
X178023239Y-114124685D01*
X178023239Y-114124685D02*
X178118477Y-114172304D01*
X178118477Y-114172304D02*
X178166096Y-114219923D01*
X178166096Y-114219923D02*
X178213715Y-114315161D01*
X178213715Y-114315161D02*
X178261334Y-114505637D01*
X178261334Y-114505637D02*
X178308953Y-114600875D01*
X178308953Y-114600875D02*
X178356572Y-114648494D01*
X178356572Y-114648494D02*
X178451810Y-114696113D01*
X178451810Y-114696113D02*
X178547048Y-114696113D01*
X178547048Y-114696113D02*
X178642286Y-114648494D01*
X178642286Y-114648494D02*
X178689905Y-114600875D01*
X178689905Y-114600875D02*
X178737524Y-114505637D01*
X178737524Y-114505637D02*
X178737524Y-114267542D01*
X178737524Y-114267542D02*
X178689905Y-114124685D01*
X177737524Y-113696113D02*
X178737524Y-113696113D01*
X178737524Y-113696113D02*
X177737524Y-113124685D01*
X177737524Y-113124685D02*
X178737524Y-113124685D01*
X178689905Y-112124685D02*
X178737524Y-112219923D01*
X178737524Y-112219923D02*
X178737524Y-112362780D01*
X178737524Y-112362780D02*
X178689905Y-112505637D01*
X178689905Y-112505637D02*
X178594667Y-112600875D01*
X178594667Y-112600875D02*
X178499429Y-112648494D01*
X178499429Y-112648494D02*
X178308953Y-112696113D01*
X178308953Y-112696113D02*
X178166096Y-112696113D01*
X178166096Y-112696113D02*
X177975620Y-112648494D01*
X177975620Y-112648494D02*
X177880382Y-112600875D01*
X177880382Y-112600875D02*
X177785144Y-112505637D01*
X177785144Y-112505637D02*
X177737524Y-112362780D01*
X177737524Y-112362780D02*
X177737524Y-112267542D01*
X177737524Y-112267542D02*
X177785144Y-112124685D01*
X177785144Y-112124685D02*
X177832763Y-112077066D01*
X177832763Y-112077066D02*
X178166096Y-112077066D01*
X178166096Y-112077066D02*
X178166096Y-112267542D01*
X177737524Y-111648494D02*
X178737524Y-111648494D01*
X178737524Y-111648494D02*
X178023239Y-111315161D01*
X178023239Y-111315161D02*
X178737524Y-110981828D01*
X178737524Y-110981828D02*
X177737524Y-110981828D01*
X177737524Y-110505637D02*
X178737524Y-110505637D01*
X177785144Y-110077066D02*
X177737524Y-109934209D01*
X177737524Y-109934209D02*
X177737524Y-109696114D01*
X177737524Y-109696114D02*
X177785144Y-109600876D01*
X177785144Y-109600876D02*
X177832763Y-109553257D01*
X177832763Y-109553257D02*
X177928001Y-109505638D01*
X177928001Y-109505638D02*
X178023239Y-109505638D01*
X178023239Y-109505638D02*
X178118477Y-109553257D01*
X178118477Y-109553257D02*
X178166096Y-109600876D01*
X178166096Y-109600876D02*
X178213715Y-109696114D01*
X178213715Y-109696114D02*
X178261334Y-109886590D01*
X178261334Y-109886590D02*
X178308953Y-109981828D01*
X178308953Y-109981828D02*
X178356572Y-110029447D01*
X178356572Y-110029447D02*
X178451810Y-110077066D01*
X178451810Y-110077066D02*
X178547048Y-110077066D01*
X178547048Y-110077066D02*
X178642286Y-110029447D01*
X178642286Y-110029447D02*
X178689905Y-109981828D01*
X178689905Y-109981828D02*
X178737524Y-109886590D01*
X178737524Y-109886590D02*
X178737524Y-109648495D01*
X178737524Y-109648495D02*
X178689905Y-109505638D01*
X178737524Y-108886590D02*
X178737524Y-108791352D01*
X178737524Y-108791352D02*
X178689905Y-108696114D01*
X178689905Y-108696114D02*
X178642286Y-108648495D01*
X178642286Y-108648495D02*
X178547048Y-108600876D01*
X178547048Y-108600876D02*
X178356572Y-108553257D01*
X178356572Y-108553257D02*
X178118477Y-108553257D01*
X178118477Y-108553257D02*
X177928001Y-108600876D01*
X177928001Y-108600876D02*
X177832763Y-108648495D01*
X177832763Y-108648495D02*
X177785144Y-108696114D01*
X177785144Y-108696114D02*
X177737524Y-108791352D01*
X177737524Y-108791352D02*
X177737524Y-108886590D01*
X177737524Y-108886590D02*
X177785144Y-108981828D01*
X177785144Y-108981828D02*
X177832763Y-109029447D01*
X177832763Y-109029447D02*
X177928001Y-109077066D01*
X177928001Y-109077066D02*
X178118477Y-109124685D01*
X178118477Y-109124685D02*
X178356572Y-109124685D01*
X178356572Y-109124685D02*
X178547048Y-109077066D01*
X178547048Y-109077066D02*
X178642286Y-109029447D01*
X178642286Y-109029447D02*
X178689905Y-108981828D01*
X178689905Y-108981828D02*
X178737524Y-108886590D01*
X178737524Y-107934209D02*
X178737524Y-107838971D01*
X178737524Y-107838971D02*
X178689905Y-107743733D01*
X178689905Y-107743733D02*
X178642286Y-107696114D01*
X178642286Y-107696114D02*
X178547048Y-107648495D01*
X178547048Y-107648495D02*
X178356572Y-107600876D01*
X178356572Y-107600876D02*
X178118477Y-107600876D01*
X178118477Y-107600876D02*
X177928001Y-107648495D01*
X177928001Y-107648495D02*
X177832763Y-107696114D01*
X177832763Y-107696114D02*
X177785144Y-107743733D01*
X177785144Y-107743733D02*
X177737524Y-107838971D01*
X177737524Y-107838971D02*
X177737524Y-107934209D01*
X177737524Y-107934209D02*
X177785144Y-108029447D01*
X177785144Y-108029447D02*
X177832763Y-108077066D01*
X177832763Y-108077066D02*
X177928001Y-108124685D01*
X177928001Y-108124685D02*
X178118477Y-108172304D01*
X178118477Y-108172304D02*
X178356572Y-108172304D01*
X178356572Y-108172304D02*
X178547048Y-108124685D01*
X178547048Y-108124685D02*
X178642286Y-108077066D01*
X178642286Y-108077066D02*
X178689905Y-108029447D01*
X178689905Y-108029447D02*
X178737524Y-107934209D01*
X178737524Y-106696114D02*
X178737524Y-107172304D01*
X178737524Y-107172304D02*
X178261334Y-107219923D01*
X178261334Y-107219923D02*
X178308953Y-107172304D01*
X178308953Y-107172304D02*
X178356572Y-107077066D01*
X178356572Y-107077066D02*
X178356572Y-106838971D01*
X178356572Y-106838971D02*
X178308953Y-106743733D01*
X178308953Y-106743733D02*
X178261334Y-106696114D01*
X178261334Y-106696114D02*
X178166096Y-106648495D01*
X178166096Y-106648495D02*
X177928001Y-106648495D01*
X177928001Y-106648495D02*
X177832763Y-106696114D01*
X177832763Y-106696114D02*
X177785144Y-106743733D01*
X177785144Y-106743733D02*
X177737524Y-106838971D01*
X177737524Y-106838971D02*
X177737524Y-107077066D01*
X177737524Y-107077066D02*
X177785144Y-107172304D01*
X177785144Y-107172304D02*
X177832763Y-107219923D01*
X177079961Y-129172306D02*
X177127580Y-129267544D01*
X177127580Y-129267544D02*
X177127580Y-129410401D01*
X177127580Y-129410401D02*
X177079961Y-129553258D01*
X177079961Y-129553258D02*
X176984723Y-129648496D01*
X176984723Y-129648496D02*
X176889485Y-129696115D01*
X176889485Y-129696115D02*
X176699009Y-129743734D01*
X176699009Y-129743734D02*
X176556152Y-129743734D01*
X176556152Y-129743734D02*
X176365676Y-129696115D01*
X176365676Y-129696115D02*
X176270438Y-129648496D01*
X176270438Y-129648496D02*
X176175200Y-129553258D01*
X176175200Y-129553258D02*
X176127580Y-129410401D01*
X176127580Y-129410401D02*
X176127580Y-129315163D01*
X176127580Y-129315163D02*
X176175200Y-129172306D01*
X176175200Y-129172306D02*
X176222819Y-129124687D01*
X176222819Y-129124687D02*
X176556152Y-129124687D01*
X176556152Y-129124687D02*
X176556152Y-129315163D01*
X176127580Y-128696115D02*
X176794247Y-128696115D01*
X176603771Y-128696115D02*
X176699009Y-128648496D01*
X176699009Y-128648496D02*
X176746628Y-128600877D01*
X176746628Y-128600877D02*
X176794247Y-128505639D01*
X176794247Y-128505639D02*
X176794247Y-128410401D01*
X176127580Y-127934210D02*
X176175200Y-128029448D01*
X176175200Y-128029448D02*
X176222819Y-128077067D01*
X176222819Y-128077067D02*
X176318057Y-128124686D01*
X176318057Y-128124686D02*
X176603771Y-128124686D01*
X176603771Y-128124686D02*
X176699009Y-128077067D01*
X176699009Y-128077067D02*
X176746628Y-128029448D01*
X176746628Y-128029448D02*
X176794247Y-127934210D01*
X176794247Y-127934210D02*
X176794247Y-127791353D01*
X176794247Y-127791353D02*
X176746628Y-127696115D01*
X176746628Y-127696115D02*
X176699009Y-127648496D01*
X176699009Y-127648496D02*
X176603771Y-127600877D01*
X176603771Y-127600877D02*
X176318057Y-127600877D01*
X176318057Y-127600877D02*
X176222819Y-127648496D01*
X176222819Y-127648496D02*
X176175200Y-127696115D01*
X176175200Y-127696115D02*
X176127580Y-127791353D01*
X176127580Y-127791353D02*
X176127580Y-127934210D01*
X176794247Y-126743734D02*
X176127580Y-126743734D01*
X176794247Y-127172305D02*
X176270438Y-127172305D01*
X176270438Y-127172305D02*
X176175200Y-127124686D01*
X176175200Y-127124686D02*
X176127580Y-127029448D01*
X176127580Y-127029448D02*
X176127580Y-126886591D01*
X176127580Y-126886591D02*
X176175200Y-126791353D01*
X176175200Y-126791353D02*
X176222819Y-126743734D01*
X176794247Y-126267543D02*
X175794247Y-126267543D01*
X176746628Y-126267543D02*
X176794247Y-126172305D01*
X176794247Y-126172305D02*
X176794247Y-125981829D01*
X176794247Y-125981829D02*
X176746628Y-125886591D01*
X176746628Y-125886591D02*
X176699009Y-125838972D01*
X176699009Y-125838972D02*
X176603771Y-125791353D01*
X176603771Y-125791353D02*
X176318057Y-125791353D01*
X176318057Y-125791353D02*
X176222819Y-125838972D01*
X176222819Y-125838972D02*
X176175200Y-125886591D01*
X176175200Y-125886591D02*
X176127580Y-125981829D01*
X176127580Y-125981829D02*
X176127580Y-126172305D01*
X176127580Y-126172305D02*
X176175200Y-126267543D01*
X177127580Y-124696114D02*
X177127580Y-124077067D01*
X177127580Y-124077067D02*
X176746628Y-124410400D01*
X176746628Y-124410400D02*
X176746628Y-124267543D01*
X176746628Y-124267543D02*
X176699009Y-124172305D01*
X176699009Y-124172305D02*
X176651390Y-124124686D01*
X176651390Y-124124686D02*
X176556152Y-124077067D01*
X176556152Y-124077067D02*
X176318057Y-124077067D01*
X176318057Y-124077067D02*
X176222819Y-124124686D01*
X176222819Y-124124686D02*
X176175200Y-124172305D01*
X176175200Y-124172305D02*
X176127580Y-124267543D01*
X176127580Y-124267543D02*
X176127580Y-124553257D01*
X176127580Y-124553257D02*
X176175200Y-124648495D01*
X176175200Y-124648495D02*
X176222819Y-124696114D01*
X177127580Y-123743733D02*
X177127580Y-123077067D01*
X177127580Y-123077067D02*
X176127580Y-123505638D01*
%LPC*%
D11*
%TO.C,USBC2*%
X177720000Y-68699900D03*
X170920000Y-68699900D03*
D12*
X178640000Y-70049900D03*
X170000000Y-70049900D03*
D13*
X170219900Y-69649800D03*
X178420100Y-69649800D03*
D14*
X178640000Y-65500000D03*
X170000000Y-65500000D03*
%TD*%
D15*
%TO.C,J1*%
X140000000Y-67500000D03*
D16*
X142000000Y-67500000D03*
%TD*%
D17*
%TO.C,J2*%
X133500000Y-115260000D03*
X136040000Y-115260000D03*
X133500000Y-112720000D03*
X136040000Y-112720000D03*
X133500000Y-110180000D03*
X136040000Y-110180000D03*
X133500000Y-107640000D03*
X136040000Y-107640000D03*
X133500000Y-105100000D03*
X136040000Y-105100000D03*
X133500000Y-102560000D03*
X136040000Y-102560000D03*
X133500000Y-100020000D03*
X136040000Y-100020000D03*
X133500000Y-97480000D03*
X136040000Y-97480000D03*
X133500000Y-94940000D03*
X136040000Y-94940000D03*
X133500000Y-92400000D03*
X136040000Y-92400000D03*
X133500000Y-89860000D03*
X136040000Y-89860000D03*
X133500000Y-87320000D03*
X136040000Y-87320000D03*
X133500000Y-84780000D03*
X136040000Y-84780000D03*
X133500000Y-82240000D03*
X136040000Y-82240000D03*
X133500000Y-79700000D03*
X136040000Y-79700000D03*
X133500000Y-77160000D03*
D18*
X136040000Y-77160000D03*
%TD*%
D19*
%TO.C,U12*%
X133500000Y-125000000D03*
X138300100Y-125000000D03*
X143100000Y-125000000D03*
%TD*%
%LPD*%
M02*
